<svg width="18" height="18" viewBox="0 0 18 18" fill="none" xmlns="http://www.w3.org/2000/svg">
<path d="M8.90001 4.83334C10.6111 4.83334 11.4333 5.92223 11.4333 6.96667C11.4333 8.25556 10.6 9.03334 9.25556 9.53334L9.23334 10.4778H8.07778L8.10001 9.01112C9.47778 8.43334 10.2333 8.05556 10.2333 7.01112C10.2333 6.41112 9.70001 5.9 8.81112 5.9C8.13334 5.9 7.54445 6.18889 7.11112 6.74445L6.22223 6.22223C6.82223 5.34445 7.71112 4.83334 8.90001 4.83334Z" fill="white"/>
<path d="M8.01205 12.7893V11.5004H9.3041V12.7893H8.01205Z" fill="white"/>
<path fill-rule="evenodd" clip-rule="evenodd" d="M8.99999 17.3333C4.39762 17.3333 0.666656 13.6024 0.666656 9C0.666656 4.39763 4.39762 0.666672 8.99999 0.666672C13.6024 0.666672 17.3333 4.39763 17.3333 9C17.3333 13.6024 13.6024 17.3333 8.99999 17.3333ZM9.00406 15.9444C12.8394 15.9444 15.9485 12.8353 15.9485 9.00001C15.9485 5.16469 12.8394 2.05556 9.00406 2.05556C5.16875 2.05556 2.05961 5.16469 2.05961 9.00001C2.05961 12.8353 5.16875 15.9444 9.00406 15.9444Z" fill="white"/>
</svg>
