<svg width="18" height="18" viewBox="0 0 18 18" fill="none" xmlns="http://www.w3.org/2000/svg">
<path d="M8.9001 4.83334C10.6112 4.83334 11.4334 5.92223 11.4334 6.96667C11.4334 8.25556 10.6001 9.03334 9.25565 9.53334L9.23343 10.4778H8.07788L8.1001 9.01112C9.47787 8.43334 10.2334 8.05556 10.2334 7.01112C10.2334 6.41112 9.7001 5.9 8.81121 5.9C8.13343 5.9 7.54454 6.18889 7.11121 6.74445L6.22232 6.22223C6.82232 5.34445 7.71121 4.83334 8.9001 4.83334Z" fill="#494949"/>
<path d="M8.01214 12.7893V11.5004H9.3042V12.7893H8.01214Z" fill="#494949"/>
<path fill-rule="evenodd" clip-rule="evenodd" d="M9.00008 17.3333C4.39771 17.3333 0.666748 13.6024 0.666748 9C0.666748 4.39763 4.39771 0.666672 9.00008 0.666672C13.6025 0.666672 17.3334 4.39763 17.3334 9C17.3334 13.6024 13.6025 17.3333 9.00008 17.3333ZM9.00415 15.9444C12.8395 15.9444 15.9486 12.8353 15.9486 9.00001C15.9486 5.16469 12.8395 2.05556 9.00415 2.05556C5.16884 2.05556 2.05971 5.16469 2.05971 9.00001C2.05971 12.8353 5.16884 15.9444 9.00415 15.9444Z" fill="#494949"/>
</svg>
